<svg version="1.1" xmlns="http://www.w3.org/2000/svg" xmlns:xlink="http://www.w3.org/1999/xlink" width="1560" height="804"><defs/><g><path fill="none" stroke="black" paint-order="fill stroke markers" d=" M 20 418.1802605688618 L 21 418.96961117474274 L 22 419.75609968369923 L 23 420.5395934464727 L 24 421.31996031889867 L 25 422.09706868419454 L 26 422.87078747515795 L 27 423.6409861962726 L 28 424.40753494571754 L 29 425.1703044372767 L 30 425.92916602214405 L 31 426.6839917106217 L 32 427.43465419370654 L 33 428.1810268645623 L 34 428.9229838398729 L 35 429.6603999810743 L 36 430.39315091545996 L 37 431.1211130571578 L 38 431.8441636279742 L 39 432.5621806781017 L 40 433.2750431066871 L 41 433.9826306822566 L 42 434.6848240629935 L 43 435.38150481686694 L 44 436.07255544160637 L 45 436.75785938451963 L 46 437.43730106215065 L 47 438.1107658797739 L 48 438.7781402507218 L 49 439.43931161554224 L 50 440.0941684609832 L 51 440.74260033880023 L 52 441.3844978843847 L 53 442.0197528352095 L 54 442.6482580490884 L 55 443.2699075222467 L 56 443.8845964071998 L 57 444.492221030437 L 58 445.0926789099068 L 59 445.6858687723018 L 60 446.2716905701392 L 61 446.8500454986351 L 62 447.4208360123688 L 63 447.98396584173463 L 64 448.5393400091793 L 65 449.08686484522013 L 66 449.62644800424414 L 67 450.15799848008237 L 68 450.68142662135944 L 69 451.19664414661395 L 70 451.7035641591882 L 71 452.20210116188406 L 72 452.6921710713829 L 73 453.17369123242736 L 74 453.6465804317616 L 75 454.1107589118292 L 76 454.5661483842245 L 77 455.01267204289746 L 78 455.4502545771071 L 79 455.87882218412386 L 80 456.2983025816769 L 81 456.70862502014546 L 82 457.1097202944913 L 83 457.5015207559311 L 84 457.8839603233457 L 85 458.25697449442595 L 86 458.62050035655096 L 87 458.97447659739953 L 88 459.31884351529084 L 89 459.6535430292537 L 90 459.9785186888227 L 91 460.29371568355896 L 92 460.5990808522946 L 93 460.8945626920988 L 94 461.18011136696435 L 95 461.4556787162129 L 96 461.72121826261804 L 97 461.9766852202437 L 98 462.2220365019983 L 99 462.4572307269012 L 100 462.68222822706247 L 101 462.8969910543733 L 102 463.1014829869061 L 103 463.29566953502365 L 104 463.4795179471965 L 105 463.65299721552645 L 106 463.8160780809765 L 107 463.9687330383058 L 108 464.1109363407086 L 109 464.24266400415644 L 110 464.3638938114438 L 111 464.474605315935 L 112 464.57477984501253 L 113 464.66440050322683 L 114 464.7434521751454 L 115 464.8119215279027 L 116 464.86979701344825 L 117 464.91706887049486 L 118 464.9537291261647 L 119 464.97977159733404 L 120 464.9951918916762 L 121 464.9999874084022 L 122 464.99415733869955 L 123 464.97770266586866 L 124 464.9506261651568 L 125 464.91293240329026 L 126 464.8646277377041 L 127 464.8057203154697 L 128 464.736220071921 L 129 464.6561387289784 L 130 464.5654897931721 L 131 464.46428855336393 L 132 464.35255207816874 L 133 464.2302992130756 L 134 464.0975505772693 L 135 463.9543285601529 L 136 463.80065731757105 L 137 463.63656276773656 L 138 463.46207258685837 L 139 463.27721620447414 L 140 463.0820247984864 L 141 462.87653128990416 L 142 462.6607703372905 L 143 462.43477833091697 L 144 462.198593386626 L 145 461.9522553394024 L 146 461.69580573665473 L 147 461.42928783120766 L 148 461.1527465740074 L 149 460.8662286065399 L 150 460.5697822529644 L 151 460.2634575119632 L 152 459.94730604830875 L 153 459.6213811841497 L 154 459.28573789001797 L 155 458.94043277555704 L 156 458.5855240799745 L 157 458.22107166221906 L 158 457.84713699088496 L 159 457.46378313384463 L 160 457.0710747476117 L 161 456.6690780664359 L 162 456.2578608911319 L 163 455.83749257764447 L 164 455.40804402535036 L 165 454.9695876651008 L 166 454.5221974470048 L 167 454.0659488279576 L 168 453.60091875891294 L 169 453.1271856719055 L 170 452.6448294668221 L 171 452.15393149792567 L 172 451.6545745601344 L 173 451.1468428750571 L 174 450.6308220767887 L 175 450.1065991974672 L 176 449.5742626525945 L 177 449.0339022261245 L 178 448.4856090553201 L 179 447.929475615382 L 180 447.36559570385157 L 181 446.7940644247913 L 182 446.21497817274434 L 183 445.6284346164765 L 184 445.0345326825036 L 185 444.43337253840645 L 186 443.82505557593663 L 187 443.20968439391555 L 188 442.5873627809303 L 189 441.9581956978286 L 190 441.32228926001613 L 191 440.6797507195591 L 192 440.0306884470948 L 193 439.37521191355427 L 194 438.7134316716987 L 195 438.0454593374735 L 196 437.37140757118317 L 197 436.69139005849024 L 198 436.00552149124053 L 199 435.3139175481199 L 200 434.6166948751432 L 201 433.91397106598106 L 202 433.2058646421265 L 203 432.49249503290525 L 204 431.77398255533234 L 205 431.05044839381975 L 206 430.32201457973747 L 207 429.5888039708314 L 208 428.8509402305024 L 209 428.108547806949 L 210 427.3617519121783 L 211 426.61067850088716 L 212 425.85545424921906 L 213 425.09620653339897 L 214 424.3330634082496 L 215 423.566153585594 L 216 422.79560641254704 L 217 422.0215518496995 L 218 421.2441204491991 L 219 420.46344333273123 L 220 419.6796521694045 L 221 418.89287915354276 L 222 418.10325698238984 L 223 417.3109188337282 L 224 416.51599834341755 L 225 415.7186295828557 L 226 414.9189470363662 L 227 414.1170855785157 L 228 413.31318045136663 L 229 412.5073672416668 L 230 411.6997818579817 L 231 410.8905605077716 L 232 410.0798396744194 L 233 409.2677560942109 L 234 408.45444673327285 L 235 407.6400487644726 L 236 406.82469954428205 L 237 406.0085365896115 L 238 405.19169755461553 L 239 404.37432020747667 L 240 403.55654240716933 L 241 402.7385020802084 L 242 401.92033719738623 L 243 401.1021857505032 L 244 400.2841857290934 L 245 399.46647509715143 L 246 398.64919176986353 L 247 397.8324735903466 L 248 397.0164583063996 L 249 396.20128354727126 L 250 395.387086800447 L 251 394.5740053884606 L 252 393.76217644573353 L 253 392.9517368954455 L 254 392.1428234264409 L 255 391.33557247017535 L 256 390.53012017770465 L 257 389.7266023967219 L 258 388.925154648645 L 259 388.12591210576 L 260 387.32900956842275 L 261 386.5345814423232 L 262 385.74276171581704 L 263 384.95368393732684 L 264 384.1674811928179 L 265 383.3842860833517 L 266 382.6042307027218 L 267 381.8274466151746 L 268 381.05406483321974 L 269 380.28421579553356 L 270 379.51802934495925 L 271 378.7556347066075 L 272 377.9971604660617 L 273 377.2427345476901 L 274 376.4924841930704 L 275 375.7465359395295 L 276 375.005015598801 L 277 374.26804823580613 L 278 373.5357581475605 L 279 372.8082688422097 L 280 372.0857030181989 L 281 371.3681825435779 L 282 370.6558284354474 L 283 369.9487608395481 L 284 369.2470990099965 L 285 368.5509612891721 L 286 367.86046508775746 L 287 367.17572686493565 L 288 366.4968621087482 L 289 365.8239853166171 L 290 365.1572099760334 L 291 364.4966485454167 L 292 363.8424124351474 L 293 363.1946119887767 L 294 362.55335646441597 L 295 361.9187540163088 L 296 361.2909116765904 L 297 360.66993533723485 L 298 360.055929732196 L 299 359.44899841974245 L 300 358.8492437649918 L 301 358.2567669226455 L 302 357.67166781992825 L 303 357.09404513973413 L 304 356.5239963039828 L 305 355.96161745718825 L 306 355.40700345024317 L 307 354.86024782442126 L 308 354.32144279560055 L 309 353.7906792387103 L 310 353.2680466724042 L 311 352.75363324396176 L 312 352.24752571442167 L 313 351.7498094439485 L 314 351.2605683774361 L 315 350.7798850303491 L 316 350.3078404748061 L 317 349.84451432590583 L 318 349.38998472829957 L 319 348.9443283430109 L 320 348.5076203345064 L 321 348.07993435801785 L 322 347.66134254712017 L 323 347.2519155015651 L 324 346.8517222753737 L 325 346.4608303651897 L 326 346.07930569889584 L 327 345.70721262449416 L 328 345.3446138992531 L 329 344.9915706791228 L 330 344.6481425084207 L 331 344.31438730978874 L 332 343.990361374424 L 333 343.6761193525848 L 334 343.3717142443731 L 335 343.07719739079585 L 336 342.7926184651055 L 337 342.5180254644223 L 338 342.253464701639 L 339 341.9989807976099 L 340 341.7546166736246 L 341 341.5204135441695 L 342 341.2964109099763 L 343 341.0826465513597 L 344 340.87915652184523 L 345 340.6859751420891 L 346 340.5031349940889 L 347 340.33066691568894 L 348 340.1685999953787 L 349 340.0169615673869 L 350 339.87577720707145 L 351 339.74507072660566 L 352 339.6248641709624 L 353 339.5151778141955 L 354 339.4160301560209 L 355 339.32743791869603 L 356 339.2494160441997 L 357 339.1819776917118 L 358 339.12513423539406 L 359 339.0788952624716 L 360 339.0432685716157 L 361 339.01826017162904 L 362 339.00387428043166 L 363 339.00011332435 L 364 339.00697793770735 L 365 339.02446696271716 L 366 339.052577449678 L 367 339.09130465747137 L 368 339.1406420543612 L 369 339.20058131909536 L 370 339.2711123423094 L 371 339.35222322823125 L 372 339.443900296688 L 373 339.54612808541276 L 374 339.65888935265286 L 375 339.7821650800776 L 376 339.91593447598615 L 377 340.06017497881396 L 378 340.2148622609383 L 379 340.37997023278103 L 380 340.5554710472094 L 381 340.74133510423206 L 382 340.937531055992 L 383 341.14402581205337 L 384 341.3607845449826 L 385 341.58777069622226 L 386 341.8249459822574 L 387 342.072270401072 L 388 342.32970223889606 L 389 342.59719807724076 L 390 342.8747128002218 L 391 343.16219960216836 L 392 343.45960999551727 L 393 343.76689381899126 L 394 344.083999246059 L 395 344.4108727936761 L 396 344.7474593313056 L 397 345.09370209021637 L 398 345.44954267305775 L 399 345.8149210637087 L 400 346.1897756374002 L 401 346.5740431711091 L 402 346.9676588542209 L 403 347.370556299461 L 404 347.7826675540917 L 405 348.2039231113727 L 406 348.63425192228476 L 407 349.07358140751205 L 408 349.521837469684 L 409 349.9789445058723 L 410 350.4448254203421 L 411 350.91940163755527 L 412 351.40259311542246 L 413 351.8943183588035 L 414 352.3944944332521 L 415 352.9030369790035 L 416 353.4198602252031 L 417 353.9448770043719 L 418 354.4779987671087 L 419 355.0191355970246 L 420 355.5681962259085 L 421 356.12508804912005 L 422 356.6897171412088 L 423 357.2619882717555 L 424 357.84180492143355 L 425 358.429069298288 L 426 359.02368235422955 L 427 359.62554380173924 L 428 360.2345521307837 L 429 360.85060462593555 L 430 361.47359738369727 L 431 362.1034253300258 L 432 362.73998223805415 L 433 363.38316074600783 L 434 364.0328523753124 L 435 364.6889475488895 L 436 365.3513356096379 L 437 366.01990483909753 L 438 366.69454247629136 L 439 367.3751347367439 L 440 368.06156683167217 L 441 368.7537229873457 L 442 369.45148646461354 L 443 370.1547395785926 L 444 370.8633637185175 L 445 371.5772393677445 L 446 372.2962461239096 L 447 373.0202627192358 L 448 373.7491670409858 L 449 374.48283615205776 L 450 375.2211463117198 L 451 375.96397299648015 L 452 376.7111909210894 L 453 377.4626740596708 L 454 378.21829566697636 L 455 378.9779282997631 L 456 379.7414438382881 L 457 380.5087135079169 L 458 381.279607900843 L 459 382.0539969979133 L 460 382.8317501905577 L 461 383.61273630281704 L 462 384.3968236134677 L 463 385.1838798782373 L 464 385.97377235210945 L 465 386.7663678117123 L 466 387.561532577788 L 467 388.3591325377392 L 468 389.1590331682483 L 469 389.96109955796646 L 470 390.7651964302675 L 471 391.57118816606373 L 472 392.3789388266796 L 473 393.188312176779 L 474 393.99917170734284 L 475 394.8113806586927 L 476 395.62480204355654 L 477 396.4392986701731 L 478 397.2547331654309 L 479 398.07096799803713 L 480 398.8878655017142 L 481 399.70528789841825 L 482 400.5230973215768 L 483 401.34115583934164 L 484 402.15932547785206 L 485 402.97746824450576 L 486 403.7954461512326 L 487 404.6131212377679 L 488 405.4303555949205 L 489 406.2470113878327 L 490 407.06295087922774 L 491 407.87803645264023 L 492 408.6921306356266 L 493 409.50509612295156 L 494 410.3167957997456 L 495 411.12709276463096 L 496 411.9358503528117 L 497 412.74293215912303 L 498 413.5482020610381 L 499 414.3515242416259 L 500 415.15276321245835 L 501 415.95178383646186 L 502 416.74845135070956 L 503 417.5426313891503 L 504 418.33419000527107 L 505 419.12299369468803 L 506 419.90890941766406 L 507 420.69180462154657 L 508 421.47154726312414 L 509 422.24800583089706 L 510 423.02104936725783 L 511 423.79054749057866 L 512 424.55637041720166 L 513 425.31838898332796 L 514 426.0764746668029 L 515 426.8304996087921 L 516 427.5803366353465 L 517 428.3258592788514 L 518 429.0669417993566 L 519 429.80345920578355 L 520 430.53528727700643 L 521 431.2623025828035 L 522 431.98438250467456 L 523 432.7014052565219 L 524 433.41324990519104 L 525 434.11979639086667 L 526 434.82092554732276 L 527 435.51651912202055 L 528 436.20645979605325 L 529 436.89063120393325 L 530 437.5689179532179 L 531 438.241205643972 L 532 438.90738088806245 L 533 439.5673313282821 L 534 440.2209456573001 L 535 440.86811363643494 L 536 441.50872611424745 L 537 442.14267504495024 L 538 442.76985350663045 L 539 443.3901557192837 L 540 444.0034770626546 L 541 444.609714093882 L 542 445.2087645649461 L 543 445.8005274399129 L 544 446.38490291197576 L 545 446.9617924202882 L 546 447.53109866658735 L 547 448.09272563160454 L 548 448.6465785912595 L 549 449.192564132637 L 550 449.7305901697414 L 551 450.2605659590282 L 552 450.782402114709 L 553 451.29601062382676 L 554 451.8013048611008 L 555 452.2981996035363 L 556 452.7866110447987 L 557 453.26645680934786 L 558 453.73765596633206 L 559 454.2001290432375 L 560 454.6537980392923 L 561 455.09858643862196 L 562 455.5344192231547 L 563 455.96122288527386 L 564 456.3789254402159 L 565 456.78745643821117 L 566 457.18674697636607 L 567 457.57672971028427 L 568 457.9573388654249 L 569 458.32851024819627 L 570 458.6901812567824 L 571 459.04229089170207 L 572 459.38477976609636 L 573 459.7175901157452 L 574 460.0406658088099 L 575 460.3539523553002 L 576 460.6573969162646 L 577 460.9509483127022 L 578 461.23455703419484 L 579 461.5081752472568 L 580 461.7717568034033 L 581 462.0252572469333 L 582 462.26863382242743 L 583 462.50184548195955 L 584 462.72485289201944 L 585 462.9376184401471 L 586 463.14010624127627 L 587 463.3322821437869 L 588 463.5141137352653 L 589 463.68557034797044 L 590 463.84662306400674 L 591 463.99724472020137 L 592 464.13740991268526 L 593 464.267095001178 L 594 464.386278112975 L 595 464.49493914663645 L 596 464.5930597753777 L 597 464.68062345016006 L 598 464.7576154024824 L 599 464.82402264687147 L 600 464.8798339830725 L 601 464.9250399979379 L 602 464.9596330670151 L 603 464.9836073558323 L 604 464.9969588208828 L 605 464.99968521030667 L 606 464.9917860642706 L 607 464.9732627150458 L 608 464.9441182867827 L 609 464.90435769498464 L 610 464.85398764567833 L 611 464.7930166342832 L 612 464.72145494417833 L 613 464.63931464496807 L 614 464.54660959044634 L 615 464.4433554162604 L 616 464.3295695372731 L 617 464.2052711446263 L 618 464.0704812025038 L 619 463.92522244459553 L 620 463.7695193702633 L 621 463.60339824040886 L 622 463.4268870730444 L 623 463.2400156385674 L 624 463.0428154547394 L 625 462.8353197813702 L 626 462.6175636147081 L 627 462.3895836815379 L 628 462.1514184329859 L 629 461.90310803803544 L 630 461.6446943767513 L 631 461.3762210332168 L 632 461.0977332881824 L 633 460.80927811142897 L 634 460.51090415384584 L 635 460.20266173922516 L 636 459.8846028557745 L 637 459.55678114734826 L 638 459.21925190440027 L 639 458.87207205465853 L 640 458.5153001535236 L 641 458.14899637419273 L 642 457.77322249751103 L 643 457.3880419015517 L 644 456.9935195509261 L 645 456.5897219858277 L 646 456.1767173108085 L 647 455.7545751832931 L 648 455.32336680183005 L 649 454.88316489408345 L 650 454.4340437045669 L 651 453.97607898212107 L 652 453.50934796713835 L 653 453.033929378535 L 654 452.5499034004747 L 655 452.0573516688448 L 656 451.5563572574869 L 657 451.0470046641867 L 658 450.5293797964216 L 659 450.0035699568721 L 660 449.46966382869715 L 661 448.9277514605768 L 662 448.3779242515245 L 663 447.8202749354722 L 664 447.254897565629 L 665 446.68188749861906 L 666 446.10134137839793 L 667 445.51335711995307 L 668 444.91803389278937 L 669 444.31547210420314 L 670 443.7057733823475 L 671 443.08904055909153 L 672 442.4653776526769 L 673 441.83488985017425 L 674 441.19768348974173 L 675 440.55386604269074 L 676 439.9035460953592 L 677 439.2468333307978 L 678 438.5838385102705 L 679 437.91467345457374 L 680 437.23945102517666 L 681 436.5582851051859 L 682 435.87129058013795 L 683 435.17858331862266 L 684 434.4802801527408 L 685 433.7764988583992 L 686 433.06735813544645 L 687 432.35297758765313 L 688 431.6334777025393 L 689 430.9089798310535 L 690 430.1796061671049 L 691 429.4454797269547 L 692 428.70672432846806 L 693 427.96346457023066 L 694 427.2158258105343 L 695 426.4639341462336 L 696 425.7079163914788 L 697 424.94790005632706 L 698 424.1840133252366 L 699 423.4163850354472 L 700 422.64514465525036 L 701 421.8704222621535 L 702 421.0923485209404 L 703 420.31105466163393 L 704 419.52667245736245 L 705 418.739334202135 L 706 417.94917268852873 L 707 417.15632118529163 L 708 416.36091341486593 L 709 415.56308353083415 L 710 414.7629660952929 L 711 413.9606960561574 L 712 413.1564087244014 L 713 412.3502397512354 L 714 411.5423251052279 L 715 410.7328010493728 L 716 409.9218041181073 L 717 409.10947109428383 L 718 408.2959389861004 L 719 407.4813450039929 L 720 406.66582653749293 L 721 405.84952113205577 L 722 405.03256646586186 L 723 404.21510032659614 L 724 403.39726058820867 L 725 402.5791851876607 L 726 401.76101210166036 L 727 400.94287932339137 L 728 400.12492483923927 L 729 399.30728660551824 L 730 398.4901025252039 L 731 397.67351042467413 L 732 396.8576480304636 L 733 396.0426529460342 L 734 395.22866262856763 L 735 394.4158143657814 L 736 393.60424525277375 L 737 392.7940921689015 L 738 391.9854917546937 L 739 391.17858038880615 L 740 390.3734941650192 L 741 389.5703688692847 L 742 388.76933995682407 L 743 387.97054252928234 L 744 387.17411131194217 L 745 386.38018063100077 L 746 385.5888843909146 L 747 384.8003560518149 L 748 384.01472860699835 L 749 383.23213456049643 L 750 382.45270590472734 L 751 381.67657409823386 L 752 380.903870043512 L 753 380.13472406493236 L 754 379.36926588676016 L 755 378.6076246112757 L 756 377.8499286969998 L 757 377.0963059370284 L 758 376.34688343747825 L 759 375.60178759605 L 760 374.8611440807094 L 761 374.1250778084923 L 762 373.39371292443604 L 763 372.66717278064147 L 764 371.94557991546753 L 765 371.22905603286495 L 766 370.51772198184915 L 767 369.8116977361176 L 768 369.11110237381547 L 769 368.41605405745173 L 770 367.7266700139697 L 771 367.04306651497575 L 772 366.3653588571289 L 773 365.6936613426946 L 774 365.02808726026694 L 775 364.3687488656609 L 776 363.7157573629797 L 777 363.0692228858588 L 778 362.4292544788909 L 779 361.79596007923436 L 780 361.1694464984086 L 781 360.5498194042792 L 782 359.93718330323605 L 783 359.331641522567 L 784 358.7332961930311 L 785 358.1422482316327 L 786 357.5585973246014 L 787 356.9824419105783 L 788 356.4138791640138 L 789 355.8530049787778 L 790 355.29991395198664 L 791 354.7546993680479 L 792 354.21745318292744 L 793 353.68826600863963 L 794 353.1672270979653 L 795 352.6544243293976 L 796 352.1499441923213 L 797 351.65387177242474 L 798 351.1662907373496 L 799 350.68728332257945 L 800 350.21693031756985 L 801 349.7553110521225 L 802 349.30250338300544 L 803 348.85858368082154 L 804 348.4236268171281 L 805 347.9977061518087 L 806 347.58089352070067 L 807 347.17325922347885 L 808 346.77487201179923 L 809 346.38579907770304 L 810 346.0061060422841 L 811 345.63585694462125 L 812 345.2751142309777 L 813 344.9239387442684 L 814 344.58238971379865 L 815 344.2505247452743 L 816 343.92839981108597 L 817 343.6160692408688 L 818 343.3135857123392 L 819 343.0210002424101 L 820 342.7383621785866 L 821 342.4657191906429 L 822 342.2031172625824 L 823 341.95060068488186 L 824 341.7082120470217 L 825 341.47599223030227 L 826 341.25398040094956 L 827 341.0422140035088 L 828 340.8407287545292 L 829 340.6495586365404 L 830 340.4687358923204 L 831 340.29829101945774 L 832 340.13825276520777 L 833 339.9886481216443 L 834 339.84950232110674 L 835 339.7208388319448 L 836 339.6026793545598 L 837 339.4950438177455 L 838 339.397950375326 L 839 339.3114154030945 L 840 339.2354534960512 L 841 339.17007746594163 L 842 339.1152983390959 L 843 339.071125354569 L 844 339.03756596258245 L 845 339.0146258232679 L 846 339.00230880571235 L 847 339.0006169873057 L 848 339.0095506533902 L 849 339.02910829721253 L 850 339.05928662017783 L 851 339.1000805324061 L 852 339.15148315359045 L 853 339.21348581415793 L 854 339.2860780567314 L 855 339.3692476378933 L 856 339.4629805302508 L 857 339.56726092480153 L 858 339.6820712336 L 859 339.80739209272406 L 860 339.9432023655404 L 861 340.08947914627015 L 862 340.24619776385146 L 863 340.4133317861011 L 864 340.5908530241722 L 865 340.7787315373086 L 866 340.97693563789477 L 867 341.18543189680025 L 868 341.4041851490177 L 869 341.63315849959383 L 870 341.8723133298524 L 871 342.121609303907 L 872 342.3810043754651 L 873 342.6504547949186 L 874 342.9299151167232 L 875 343.219338207063 L 876 343.51867525180035 L 877 343.82787576470866 L 878 344.1468875959875 L 879 344.475656941058 L 880 344.8141283496378 L 881 345.1622447350933 L 882 345.5199473840675 L 883 345.8871759663832 L 884 346.2638685452178 L 885 346.6499615875498 L 886 347.0453899748743 L 887 347.4500870141858 L 888 347.86398444922673 L 889 348.28701247199945 L 890 348.71909973454035 L 891 349.1601733609529 L 892 349.6101589596995 L 893 350.06898063614796 L 894 350.536561005372 L 895 351.0128212052032 L 896 351.4976809095314 L 897 351.9910583418532 L 898 352.4928702890639 L 899 353.00303211549226 L 900 353.52145777717544 L 901 354.04805983637084 L 902 354.5827494763039 L 903 355.12543651614726 L 904 355.676029426231 L 905 356.2344353434804 L 906 356.80056008707743 L 907 357.3743081743461 L 908 357.955582836856 L 909 358.5442860367438 L 910 359.1403184832478 L 911 359.74357964945466 L 912 360.3539677892543 L 913 360.9713799545 L 914 361.5957120123723 L 915 362.22685866294154 L 916 362.864713456928 L 917 363.5091688136553 L 918 364.1601160391958 L 919 364.817445344702 L 920 365.4810458649239 L 921 366.15080567690774 L 922 366.82661181887266 L 923 367.50835030926305 L 924 368.1959061659726 L 925 368.88916342573714 L 926 369.58800516369314 L 927 370.2923135130982 L 928 371.0019696852105 L 929 371.71685398932374 L 930 372.4368458529541 L 931 373.16182384217615 L 932 373.8916656821037 L 933 374.6262482775131 L 934 375.3654477336041 L 935 376.10913937689605 L 936 376.85719777625536 L 937 377.6094967640509 L 938 378.3659094574333 L 939 379.126308279735 L 940 379.89056498198727 L 941 380.65855066455117 L 942 381.43013579885707 L 943 382.2051902492515 L 944 382.9835832949457 L 945 383.7651836520629 L 946 384.54985949578065 L 947 385.3374784825648 L 948 386.12790777248995 L 949 386.92101405164493 L 950 387.71666355461696 L 951 388.5147220870528 L 952 389.31505504829215 L 953 390.11752745406903 L 954 390.9220039592786 L 955 391.7283488808042 L 956 392.536426220402 L 957 393.3460996876381 L 958 394.15723272287573 L 959 394.96968852030693 L 960 395.7833300510267 L 961 396.598020086144 L 962 397.4136212199269 L 963 398.2299958929773 L 964 399.0470064154323 L 965 399.8645149901862 L 966 400.68238373613167 L 967 401.5004747114151 L 968 402.31864993670155 L 969 403.13677141844636 L 970 403.95470117216945 L 971 404.77230124572753 L 972 405.5894337425811 L 973 406.4059608450524 L 974 407.2217448375694 L 975 408.0366481298933 L 976 408.85053328032416 L 977 409.66326301888193 L 978 410.4747002704585 L 979 411.2847081779372 L 980 412.0931501252742 L 981 412.8998897605408 L 982 413.7047910189208 L 983 414.5077181456586 L 984 415.30853571895597 L 985 416.10710867281233 L 986 416.90330231980494 L 987 417.6969823738051 L 988 418.4880149726272 L 989 419.27626670060573 L 990 420.0616046110973 L 991 420.84389624890326 L 992 421.6230096726098 L 993 422.3988134768411 L 994 423.1711768144221 L 995 423.93996941844773 L 996 424.7050616242528 L 997 425.4663243912821 L 998 426.22362932485396 L 999 426.9768486978155 L 1000 427.7258554720851 L 1001 428.47052332007837 L 1002 429.2107266460151 L 1003 429.94634060710183 L 1004 430.677241134588 L 1005 431.4033049546914 L 1006 432.12440960938966 L 1007 432.8404334770737 L 1008 433.55125579306093 L 1009 434.25675666996284 L 1010 434.956817117906 L 1011 435.6513190646001 L 1012 436.3401453752526 L 1013 437.0231798723243 L 1014 437.7003073551244 L 1015 438.37141361923955 L 1016 439.0363854757962 L 1017 439.6951107705508 L 1018 440.3474784028056 L 1019 440.99337834414735 L 1020 441.63270165700413 L 1021 442.2653405130192 L 1022 442.89118821123736 L 1023 443.5101391961007 L 1024 444.1220890752522 L 1025 444.72693463714205 L 1026 445.32457386843583 L 1027 445.9149059712196 L 1028 446.4978313800007 L 1029 447.07325177850066 L 1030 447.6410701162369 L 1031 448.2011906248915 L 1032 448.7535188344634 L 1033 449.29796158920186 L 1034 449.8344270633179 L 1035 450.3628247764718 L 1036 450.8830656090337 L 1037 451.3950618171139 L 1038 451.8987270473626 L 1039 452.39397635153375 L 1040 452.8807262008123 L 1041 453.3588944999027 L 1042 453.8284006008748 L 1043 454.2891653167657 L 1044 454.741110934936 L 1045 455.1841612301763 L 1046 455.6182414775637 L 1047 456.0432784650647 L 1048 456.45920050588336 L 1049 456.86593745055177 L 1050 457.2634206987617 L 1051 457.6515832109344 L 1052 458.030359519528 L 1053 458.3996857400789 L 1054 458.75949958197646 L 1055 459.10974035896936 L 1056 459.4503489994006 L 1057 459.78126805617063 L 1058 460.10244171642637 L 1059 460.4138158109748 L 1060 460.7153378234188 L 1061 461.00695689901477 L 1062 461.2886238532499 L 1063 461.56029118013737 L 1064 461.82191306022906 L 1065 462.0734453683431 L 1066 462.31484568100626 L 1067 462.546073283609 L 1068 462.7670891772725 L 1069 462.9778560854262 L 1070 463.17833846009466 L 1071 463.3685024878934 L 1072 463.5483160957317 L 1073 463.717748956222 L 1074 463.8767724927951 L 1075 464.0253598845197 L 1076 464.1634860706261 L 1077 464.29112775473305 L 1078 464.40826340877686 L 1079 464.51487327664205 L 1080 464.61093937749393 L 1081 464.69644550881094 L 1082 464.7713772491172 L 1083 464.8357219604154 L 1084 464.8894687903177 L 1085 464.9326086738765 L 1086 464.96513433511313 L 1087 464.9870402882452 L 1088 464.9983228386117 L 1089 464.99898008329615 L 1090 464.98901191144756 L 1091 464.9684200042991 L 1092 464.93720783488465 L 1093 464.89538066745297 L 1094 464.84294555657976 L 1095 464.779911345978 L 1096 464.7062886670061 L 1097 464.6220899368752 L 1098 464.52732935655456 L 1099 464.4220229083764 L 1100 464.30618835334064 L 1101 464.17984522811906 L 1102 464.04301484176034 L 1103 463.89572027209596 L 1104 463.737986361848 L 1105 463.5698397144393 L 1106 463.39130868950616 L 1107 463.20242339811546 L 1108 463.00321569768613 L 1109 462.79371918661593 L 1110 462.5739691986149 L 1111 462.3440027967459 L 1112 462.10385876717334 L 1113 461.85357761262196 L 1114 461.5932015455452 L 1115 461.3227744810059 L 1116 461.0423420292695 L 1117 460.7519514881114 L 1118 460.4516518348396 L 1119 460.14149371803444 L 1120 459.82152944900605 L 1121 459.4918129929714 L 1122 459.1523999599528 L 1123 458.80334759539835 L 1124 458.4447147705274 L 1125 458.0765619724008 L 1126 457.6989512937194 L 1127 457.31194642235164 L 1128 456.9156126305916 L 1129 456.5100167641504 L 1130 456.09522723088196 L 1131 455.6713139892453 L 1132 455.2383485365052 L 1133 454.79640389667384 L 1134 454.345554608194 L 1135 453.8858767113679 L 1136 453.41744773553216 L 1137 452.94034668598135 L 1138 452.45465403064327 L 1139 451.96045168650704 L 1140 451.4578230058072 L 1141 450.9468527619652 L 1142 450.4276271352918 L 1143 449.9002336984516 L 1144 449.36476140169333 L 1145 448.82130055784717 L 1146 448.2699428270929 L 1147 447.7107812015002 L 1148 447.1439099893448 L 1149 446.56942479920224 L 1150 445.98742252382266 L 1151 445.39800132378883 L 1152 444.8012606109604 L 1153 444.197301031707 L 1154 443.58622444993324 L 1155 442.9681339298984 L 1156 442.34313371883337 L 1157 441.71132922935874 L 1158 441.07282702170545 L 1159 440.4277347857425 L 1160 439.7761613228139 L 1161 439.1182165273884 L 1162 438.4540113685246 L 1163 437.7836578711548 L 1164 437.1072690971906 L 1165 436.4249591264547 L 1166 435.73684303743926 L 1167 435.0430368878973 L 1168 434.34365769526823 L 1169 433.63882341694153 L 1170 432.9286529303623 L 1171 432.21326601298125 L 1172 431.49278332205296 L 1173 430.76732637428586 L 1174 430.0370175253473 L 1175 429.30197994922685 L 1176 428.5623376174619 L 1177 427.8182152782285 L 1178 427.06973843530136 L 1179 426.3170333268866 L 1180 425.56022690432974 L 1181 424.7994468107049 L 1182 424.0348213592859 L 1183 423.2664795119052 L 1184 422.494550857203 L 1185 421.71916558877115 L 1186 420.9404544831941 L 1187 420.1585488779928 L 1188 419.3735806494727 L 1189 418.5856821904817 L 1190 417.79498638808093 L 1191 417.00162660113176 L 1192 416.20573663780357 L 1193 415.40745073300565 L 1194 414.60690352574704 L 1195 413.8042300364283 L 1196 412.9995656440692 L 1197 412.1930460634753 L 1198 411.3848073223487 L 1199 410.57498573834505 L 1200 409.7637178960827 L 1201 408.9511406241061 L 1202 408.1373909718082 L 1203 407.3226061863158 L 1204 406.50692368934153 L 1205 405.69048105400594 L 1206 404.8734159816348 L 1207 404.05586627853415 L 1208 403.23796983274786 L 1209 402.41986459080164 L 1210 401.6016885344364 L 1211 400.78357965733704 L 1212 399.9656759418578 L 1213 399.1481153357504 L 1214 398.3310357288976 L 1215 397.51457493005677 L 1216 396.6988706436172 L 1217 395.8840604463745 L 1218 395.0702817643272 L 1219 394.2576718494982 L 1220 393.4463677567861 L 1221 392.6365063208493 L 1222 391.82822413302756 L 1223 391.0216575183044 L 1224 390.21694251231446 L 1225 389.41421483840014 L 1226 388.61360988471955 L 1227 387.81526268141306 L 1228 387.0193078778283 L 1229 386.2258797198105 L 1230 385.43511202706054 L 1231 384.6471381705648 L 1232 383.8620910501009 L 1233 383.0801030718228 L 1234 382.3013061259288 L 1235 381.525831564418 L 1236 380.7538101789347 L 1237 379.98537217871103 L 1238 379.220647168604 L 1239 378.4597641272381 L 1240 377.70285138524986 L 1241 376.9500366036456 L 1242 376.20144675226805 L 1243 375.4572080883837 L 1244 374.7174461353862 L 1245 373.9822856616274 L 1246 373.25185065937205 L 1247 372.52626432388735 L 1248 371.80564903266287 L 1249 371.0901263247713 L 1250 370.37981688037 L 1251 369.67484050034597 L 1252 368.97531608611155 L 1253 368.281361619549 L 1254 367.5930941431132 L 1255 366.9106297400898 L 1256 366.23408351501814 L 1257 365.5635695742759 L 1258 364.8992010068357 L 1259 364.24108986519 L 1260 363.5893471464537 L 1261 362.94408277364175 L 1262 362.3054055771313 L 1263 361.6734232763048 L 1264 361.0482424613827 L 1265 360.42996857544654 L 1266 359.81870589665346 L 1267 359.21455752065015 L 1268 358.6176253431835 L 1269 358.02801004291575 L 1270 357.4458110644433 L 1271 356.87112660152525 L 1272 356.30405358052064 L 1273 355.74468764404264 L 1274 355.19312313482567 L 1275 354.649453079815 L 1276 354.11376917447564 L 1277 353.5861617673281 L 1278 353.066719844709 L 1279 352.5555310157638 L 1280 352.0526814976696 L 1281 351.5582561010943 L 1282 351.0723382158926 L 1283 350.59500979704086 L 1284 350.1263513508152 L 1285 349.6664419212124 L 1286 349.2153590766198 L 1287 348.77317889673066 L 1288 348.3399759597146 L 1289 347.9158233296375 L 1290 347.5007925441397 L 1291 347.0949536023697 L 1292 346.6983749531786 L 1293 346.3111234835751 L 1294 345.9332645074448 L 1295 345.5648617545338 L 1296 345.20597735970034 L 1297 344.8566718524354 L 1298 344.51700414665294 L 1299 344.18703153075467 L 1300 343.8668096579665 L 1301 343.5563925369531 L 1302 343.25583252270826 L 1303 342.9651803077247 L 1304 342.6844849134445 L 1305 342.4137936819911 L 1306 342.15315226818404 L 1307 341.9026046318398 L 1308 341.6621930303566 L 1309 341.43195801158794 L 1310 341.2119384070032 L 1311 341.00217132513876 L 1312 340.8026921453392 L 1313 340.61353451179 L 1314 340.4347303278434 L 1315 340.2663097506372 L 1316 340.10830118600893 L 1317 339.9607312837045 L 1318 339.8236249328837 L 1319 339.6970052579223 L 1320 339.58089361451175 L 1321 339.4753095860577 L 1322 339.3802709803766 L 1323 339.2957938266927 L 1324 339.22189237293424 L 1325 339.1585790833303 L 1326 339.10586463630904 L 1327 339.0637579226962 L 1328 339.0322660442157 L 1329 339.0113943122922 L 1330 339.00114624715485 L 1331 339.0015235772436 L 1332 339.01252623891787 L 1333 339.0341523764674 L 1334 339.06639834242475 L 1335 339.10925869818107 L 1336 339.1627262149028 L 1337 339.22679187475137 L 1338 339.301444872404 L 1339 339.3866726168757 L 1340 339.48246073364385 L 1341 339.58879306707144 L 1342 339.7056516831327 L 1343 339.8330168724377 L 1344 339.97086715355624 L 1345 340.11917927664115 L 1346 340.2779282273497 L 1347 340.4470872310623 L 1348 340.6266277573984 L 1349 340.81651952502847 L 1350 341.0167305067812 L 1351 341.2272269350452 L 1352 341.44797330746434 L 1353 341.67893239292545 L 1354 341.92006523783783 L 1355 342.17133117270316 L 1356 342.4326878189747 L 1357 342.70409109620505 L 1358 342.98549522948065 L 1359 343.2768527571421 L 1360 343.5781145387893 L 1361 343.88922976356923 L 1362 344.2101459587459 L 1363 344.5408089985501 L 1364 344.88116311330896 L 1365 345.23115089885096 L 1366 345.5907133261889 L 1367 345.9597897514748 L 1368 346.3383179262288 L 1369 346.72623400783743 L 1370 347.12347257032195 L 1371 347.5299666153722 L 1372 347.9456475836474 L 1373 348.3704453663393 L 1374 348.8042883169959 L 1375 349.24710326360645 L 1376 349.6988155209417 L 1377 350.1593489031512 L 1378 350.62862573661215 L 1379 351.10656687303015 L 1380 351.5930917027881 L 1381 352.0881181685424 L 1382 352.59156277906186 L 1383 353.1033406233104 L 1384 353.623365384767 L 1385 354.15154935598525 L 1386 354.6878034533844 L 1387 355.23203723227584 L 1388 355.78415890211664 L 1389 356.3440753419907 L 1390 356.91169211631563 L 1391 357.4869134907688 L 1392 358.06964244843556 L 1393 358.6597807061704 L 1394 359.25722873117496 L 1395 359.86188575778397 L 1396 360.47364980446156 L 1397 361.0924176910002 L 1398 361.7180850559246 L 1399 362.3505463740915 L 1400 362.9896949744896 L 1401 363.6354230582289 L 1402 364.2876217167232 L 1403 364.9461809500585 L 1404 365.6109896855446 L 1405 366.28193579645045 L 1406 366.9589061209134 L 1407 367.6417864810271 L 1408 368.33046170209695 L 1409 369.0248156320669 L 1410 369.72473116110865 L 1411 370.4300902413744 L 1412 371.14077390690545 L 1413 371.8566622936987 L 1414 372.5776346599214 L 1415 373.3035694062766 L 1416 374.0343440965112 L 1417 374.7698354780668 L 1418 375.50991950286743 L 1419 376.25447134824054 L 1420 377.00336543797124 L 1421 377.75647546348034 L 1422 378.51367440512905 L 1423 379.2748345536407 L 1424 380.0398275316417 L 1425 380.8085243153121 L 1426 381.5807952561485 L 1427 382.35651010282874 L 1428 383.1355380231819 L 1429 383.91774762625266 L 1430 384.70300698446374 L 1431 385.49118365586463 L 1432 386.2821447064715 L 1433 387.07575673268565 L 1434 387.87188588379524 L 1435 388.67039788454986 L 1436 389.4711580578065 L 1437 390.27403134724614 L 1438 391.07888234015036 L 1439 391.8855752902419 L 1440 392.6939741405778 L 1441 393.50394254649865 L 1442 394.31534389862276 L 1443 395.12804134588833 L 1444 395.9418978186332 L 1445 396.7567760517146 L 1446 397.57253860765866 L 1447 398.38904789984235 L 1448 399.2061662156973 L 1449 400.02375573993754 L 1450 400.8416785778032 L 1451 401.65979677831695 L 1452 402.47797235755246 L 1453 403.296067321905 L 1454 404.11394369136735 L 1455 404.9314635227995 L 1456 405.7484889331962 L 1457 406.56488212294033 L 1458 407.3805053990461 L 1459 408.1952211983807 L 1460 409.0088921108672 L 1461 409.8213809026585 L 1462 410.63255053928526 L 1463 411.442264208766 L 1464 412.2503853446835 L 1465 413.0567776492174 L 1466 413.8613051161318 L 1467 414.6638320537154 L 1468 415.4642231076654 L 1469 416.2623432839186 L 1470 417.0580579714171 L 1471 417.85123296481424 L 1472 418.64173448710744" stroke-linecap="round" stroke-linejoin="round" stroke-miterlimit="10"/></g></svg>