<!-- <svg width="424" height="480" viewBox="0 0 424 480" fill="none" xmlns="http://www.w3.org/2000/svg">
	<mask id="mask0_104_134" maskUnits="userSpaceOnUse" x="0" y="119" width="424" height="361">
		<path d="M0.166626 119.505H423.061V480H0.166626V119.505Z" />
	</mask>
	<g mask="url(#mask0_104_134)">
		<path d="M125.535 161.766C129.506 198.922 160.989 226.717 198.145 226.717C235.301 226.717 267.067 198.922 271.038 161.766L302.521 162.05C298.267 215.939 252.886 258.768 198.145 258.768C143.404 258.768 98.0231 215.939 93.7686 162.05L125.535 161.766ZM82.707 121.207C52.3585 121.207 43.8496 126.596 39.8787 156.944L4.14117 434.619C0.170293 464.968 16.9046 477.731 47.2531 477.731H349.32C379.669 477.731 396.403 464.968 392.149 434.619L356.695 156.944C352.44 126.596 344.215 121.207 313.866 121.207H82.707Z" />
	</g>
	<mask id="mask1_104_134" maskUnits="userSpaceOnUse" x="60" y="0"
		width="291" height="120">
		<path d="M60.0151 0.09375H350.454V119.503H60.0151V0.09375Z" />
	</mask>
	<g mask="url(#mask1_104_134)">
		<path d="M93.765 98.7975H125.532C129.503 61.6418 160.986 33.5623 198.141 33.5623C235.297 33.5623 267.064 61.6418 271.035 98.7975H302.518C298.263 44.9076 252.882 1.79565 198.141 1.79565C143.4 1.79565 98.0195 44.9076 93.765 98.7975Z" />
	</g>
</svg> -->

<svg width="424" height="480" viewBox="0 0 424 480" fill="none" xmlns="http://www.w3.org/2000/svg">
	<!-- Cart Body -->
	<path d="M125.535 161.766C129.506 198.922 160.989 226.717 198.145 226.717C235.301 226.717 267.067 198.922 271.038 161.766L302.521 162.05C298.267 215.939 252.886 258.768 198.145 258.768C143.404 258.768 98.0231 215.939 93.7686 162.05L125.535 161.766ZM82.707 121.207C52.3585 121.207 43.8496 126.596 39.8787 156.944L4.14117 434.619C0.170293 464.968 16.9046 477.731 47.2531 477.731H349.32C379.669 477.731 396.403 464.968 392.149 434.619L356.695 156.944C352.44 126.596 344.215 121.207 313.866 121.207H82.707Z"
		fill="currentColor"/>
	
	<!-- Cart Handle -->
	<path d="M93.765 98.7975H125.532C129.503 61.6418 160.986 33.5623 198.141 33.5623C235.297 33.5623 267.064 61.6418 271.035 98.7975H302.518C298.263 44.9076 252.882 1.79565 198.141 1.79565C143.4 1.79565 98.0195 44.9076 93.765 98.7975Z" 
		fill="currentColor"/>
</svg>