<svg width="372" height="110" viewBox="0 0 372 110" fill="none" xmlns="http://www.w3.org/2000/svg">
<path fill-rule="evenodd" clip-rule="evenodd" d="M0.327759 109.5H686.423V0.03125C667.368 0.03125 648.312 11.1261 629.247 11.1261C610.192 11.1261 591.136 0.03125 572.081 0.03125C553.015 0.03125 533.96 11.1261 514.904 11.1261C495.839 11.1261 476.784 0.03125 457.728 0.03125C438.663 0.03125 419.607 11.1261 400.552 11.1261C381.487 11.1261 362.431 0.03125 343.376 0.03125C324.31 0.03125 305.255 11.1261 286.199 11.1261C267.134 11.1261 248.079 0.03125 229.023 0.03125C209.958 0.03125 190.902 11.1261 171.847 11.1261C152.791 11.1261 133.726 0.03125 114.671 0.03125C95.6151 0.03125 76.5499 11.1261 57.504 11.1261C38.4485 11.1261 19.3833 0.03125 0.327759 0.03125V109.5Z" fill="#F62D93"/>
</svg>
