<svg width="10395" height="4701" viewBox="0 0 10395 4701" fill="none" xmlns="http://www.w3.org/2000/svg">
	<path d="M1725.36 2585.48C1725.36 2518.23 1699.85 2459.11 1651.16 2409.26C1604.79 2357.09 1545.66 2330.42 1474.94 2330.42C1406.54 2330.42 1346.26 2357.09 1294.09 2409.26C1244.24 2459.11 1219.89 2518.23 1219.89 2585.48C1219.89 2657.35 1245.4 2715.32 1298.72 2761.69C1354.37 2808.07 1415.82 2831.25 1484.22 2831.25H1655.8V3406.28H287.789C191.565 3294.99 118.528 3167.46 69.8356 3021.38C23.4625 2876.47 0.275879 2731.55 0.275879 2585.48C0.275879 2381.43 37.3744 2191.3 111.571 2015.09C188.087 1836.55 294.746 1678.88 431.546 1542.08C567.188 1406.44 723.697 1300.94 899.915 1226.74C1078.45 1150.23 1270.9 1110.81 1474.94 1110.81C1678.98 1110.81 1869.11 1150.23 2045.33 1226.74C2223.87 1300.94 2380.38 1406.44 2513.7 1542.08C2649.34 1678.88 2756 1836.55 2833.68 2015.09C2910.19 2191.3 2949.61 2381.43 2949.61 2585.48V3230.06C2949.61 3431.79 2910.19 3621.92 2833.68 3800.45C2756 3976.67 2649.34 4130.86 2513.7 4264.18C2380.38 4399.83 2223.87 4506.48 2045.33 4584.16C1869.11 4660.67 1678.98 4700.09 1474.94 4700.09H0.275879V3480.48H1725.36C1725.36 3322.81 1725.36 3172.1 1725.36 3026.02C1725.36 2877.63 1725.36 2731.55 1725.36 2585.48Z" fill="#F27141"/>
	<path d="M3682.37 3441.68C3466.74 3441.68 3262.69 3401.1 3070.24 3318.79C2878.96 3237.63 2710.85 3124.02 2565.94 2979.1C2421.02 2834.19 2307.41 2664.93 2226.25 2474.8C2143.94 2282.35 2103.36 2078.31 2103.36 1861.51C2103.36 1642.4 2143.94 1437.2 2226.25 1247.07C2307.41 1056.94 2421.02 889.993 2565.94 745.077C2710.85 600.161 2878.96 486.546 3070.24 405.394C3262.69 323.081 3466.74 282.505 3682.37 282.505C3902.64 282.505 4107.84 323.081 4297.97 405.394C4486.95 486.546 4655.05 600.161 4799.96 745.077C4944.88 889.993 5058.49 1056.94 5139.65 1247.07C5221.96 1437.2 5262.54 1642.4 5262.54 1861.51C5262.54 2078.31 5221.96 2282.35 5139.65 2474.8C5058.49 2664.93 4944.88 2834.19 4799.96 2979.1C4655.05 3124.02 4486.95 3237.63 4297.97 3318.79C4107.84 3401.1 3902.64 3441.68 3682.37 3441.68ZM3682.37 3086.92C3853.95 3086.92 4011.62 3055.62 4157.7 2993.02C4306.09 2929.25 4435.93 2841.14 4549.55 2728.69C4662 2615.07 4750.11 2484.07 4813.88 2335.68C4876.48 2187.28 4907.78 2029.61 4907.78 1861.51C4907.78 1691.09 4876.48 1532.26 4813.88 1386.19C4750.11 1238.95 4662 1109.11 4549.55 995.492C4435.93 883.037 4306.09 793.769 4157.7 731.165C4011.62 667.402 3853.95 636.1 3682.37 636.1C3514.27 636.1 3356.6 668.561 3209.36 731.165C3059.81 794.928 2928.81 883.037 2816.35 995.492C2702.74 1109.11 2614.63 1238.95 2552.02 1386.19C2488.26 1532.26 2456.96 1691.09 2456.96 1861.51C2456.96 2029.61 2489.42 2187.28 2552.02 2335.68C2615.79 2484.07 2703.9 2615.07 2816.35 2728.69C2928.81 2841.14 3059.81 2929.25 3209.36 2993.02C3356.6 3055.62 3514.27 3086.92 3682.37 3086.92ZM3682.37 1797.75C3666.14 1797.75 3651.07 1804.7 3638.32 1817.46C3625.56 1830.21 3618.61 1845.28 3618.61 1861.51C3618.61 1878.9 3625.56 1893.97 3638.32 1906.73C3651.07 1919.48 3666.14 1925.27 3682.37 1925.27C3699.76 1925.27 3714.83 1919.48 3727.58 1906.73C3740.34 1893.97 3746.13 1878.9 3746.13 1861.51C3746.13 1845.28 3740.34 1830.21 3727.58 1817.46C3714.83 1804.7 3699.76 1797.75 3682.37 1797.75ZM3682.37 1444.15C3798.3 1444.15 3895.69 1484.73 3978 1567.04C4060.31 1648.19 4100.89 1746.74 4100.89 1861.51C4100.89 1977.44 4060.31 2074.83 3978 2157.14C3895.69 2239.45 3798.3 2280.03 3682.37 2280.03C3567.6 2280.03 3469.05 2239.45 3387.9 2157.14C3305.59 2074.83 3265.01 1977.44 3265.01 1861.51C3265.01 1746.74 3305.59 1648.19 3387.9 1567.04C3469.05 1484.73 3567.6 1444.15 3682.37 1444.15Z" fill="#F4E6D2"/>
	<path d="M3680.03 3263.13C3487.58 3263.13 3306.73 3227.19 3137.46 3156.47C2967.04 3082.28 2817.49 2982.57 2687.64 2855.05C2560.12 2725.2 2460.42 2575.65 2386.22 2405.23C2314.34 2235.96 2279.56 2055.11 2279.56 1862.66C2279.56 1667.89 2314.34 1487.04 2386.22 1320.1C2460.42 1150.83 2560.12 1000.12 2687.64 870.275C2817.49 740.431 2967.04 640.728 3137.46 568.85C3306.73 498.131 3487.58 462.192 3680.03 462.192C3877.11 462.192 4060.29 498.131 4227.23 568.85C4396.49 640.728 4544.89 740.431 4672.41 870.275C4802.26 1000.12 4901.96 1150.83 4973.84 1320.1C5048.04 1487.04 5085.14 1667.89 5085.14 1862.66C5085.14 2055.11 5048.04 2235.96 4973.84 2405.23C4901.96 2575.65 4802.26 2725.2 4672.41 2855.05C4544.89 2982.57 4396.49 3082.28 4227.23 3156.47C4060.29 3227.19 3877.11 3263.13 3680.03 3263.13ZM3680.03 1621.52C3615.11 1621.52 3559.46 1647.03 3513.09 1695.72C3466.71 1742.09 3443.53 1797.74 3443.53 1862.66C3443.53 1927.58 3466.71 1985.55 3513.09 2034.24C3559.46 2080.61 3615.11 2103.8 3680.03 2103.8C3747.27 2103.8 3805.24 2080.61 3851.61 2034.24C3897.98 1985.55 3921.17 1927.58 3921.17 1862.66C3921.17 1797.74 3897.98 1742.09 3851.61 1695.72C3805.24 1647.03 3747.27 1621.52 3680.03 1621.52Z" fill="#F27141"/>
	<path d="M5026.67 3029.28H4965.22V2877.41L5106.66 2822.92L5386.06 3541.71V4417H4018.05V1298.4H5442.87L6057.31 2709.31L5919.35 2769.59L5781.39 2709.31L6395.84 1298.4H7817.17V4417H6452.64V3541.71L6733.2 2822.92L6873.48 2877.41V3029.28H6813.19V2877.41L6953.47 2933.06L6514.09 4063.4H5325.77L4885.23 2933.06L5026.67 2877.41V3029.28ZM5129.85 2726.7L5569.23 3857.04L5428.95 3912.69V3760.82H6410.91V3912.69L6269.47 3857.04L6710.01 2726.7H7093.75L6744.79 3625.18L6603.36 3569.53H6754.07V4266.29H6603.36V4115.57H7666.46V4266.29H7514.59V1449.12H7666.46V1599.83H6495.54V1449.12L6633.5 1509.4L5919.35 3146.37L5205.2 1509.4L5344.32 1449.12V1599.83H4168.76V1449.12H4319.48V4266.29H4168.76V4115.57H5235.35V4266.29H5084.63V3569.53H5235.35L5095.07 3625.18L4744.95 2726.7H5129.85Z" fill="#F4E6D2"/>
	<path d="M5024.35 2879.72H4964.06L5237.67 3570.68V4266.28H4171.08V1446.79H5344.32L5919.35 2768.42L6494.38 1446.79H7667.62V4266.28H6605.67V3570.68L6874.64 2879.72H6814.35L6410.91 3913.84H5427.8L5024.35 2879.72Z" fill="#F62D93"/>
	<path d="M8095.13 3671.76C7885.3 3671.76 7687.05 3632.34 7501.56 3555.83C7316.07 3478.15 7153.76 3372.65 7014.64 3238.17C6873.2 3102.53 6763.07 2944.86 6683.07 2764C6601.92 2581.99 6561.34 2389.54 6561.34 2185.5C6561.34 1979.14 6601.92 1784.37 6683.07 1604.67C6763.07 1424.98 6873.2 1268.47 7014.64 1132.83C7153.76 998.346 7316.07 892.847 7501.56 815.171C7687.05 737.496 7885.3 699.239 8095.13 699.239C8306.13 699.239 8504.38 737.496 8689.87 815.171C8874.2 892.847 9037.67 998.346 9176.79 1132.83C9318.23 1268.47 9427.2 1424.98 9506.04 1604.67C9586.03 1785.53 9625.45 1979.14 9625.45 2185.5C9625.45 2389.54 9586.03 2581.99 9507.2 2764C9427.2 2943.7 9318.23 3102.53 9176.79 3238.17C9037.67 3372.65 8874.2 3478.15 8689.87 3555.83C8504.38 3632.34 8306.13 3671.76 8095.13 3671.76ZM8095.13 3398.16C8269.03 3398.16 8432.5 3366.85 8584.37 3303.09C8737.4 3239.33 8871.89 3151.22 8987.82 3041.08C9102.59 2929.79 9191.86 2801.1 9255.62 2653.87C9320.55 2507.79 9351.85 2351.28 9351.85 2185.5C9351.85 2017.4 9320.55 1860.89 9255.62 1714.81C9191.86 1568.74 9102.59 1440.05 8987.82 1329.91C8871.89 1218.62 8737.4 1131.67 8584.37 1067.91C8432.5 1004.14 8269.03 972.84 8095.13 972.84C7922.39 972.84 7758.93 1004.14 7607.06 1067.91C7454.03 1131.67 7319.54 1218.62 7203.61 1329.91C7088.84 1440.05 6998.41 1568.74 6933.49 1715.97C6867.41 1860.89 6834.94 2017.4 6834.94 2185.5C6834.94 2351.28 6868.56 2506.63 6933.49 2652.71C6998.41 2801.1 7088.84 2929.79 7203.61 3041.08C7319.54 3151.22 7454.03 3239.33 7607.06 3303.09C7758.93 3366.85 7922.39 3398.16 8095.13 3398.16ZM7867.91 2185.5C7867.91 2246.94 7889.93 2300.27 7933.99 2344.33C7976.88 2387.22 8030.21 2409.25 8091.66 2409.25C8154.26 2409.25 8207.59 2387.22 8252.8 2343.17C8298.02 2299.11 8320.04 2246.94 8320.04 2185.5C8320.04 2122.89 8298.02 2069.57 8252.8 2024.35C8207.59 1980.3 8154.26 1957.11 8091.66 1957.11C8030.21 1957.11 7978.04 1979.14 7933.99 2024.35C7889.93 2069.57 7867.91 2122.89 7867.91 2185.5ZM7594.3 2185.5C7594.3 2048.7 7643 1930.45 7739.22 1831.9C7836.6 1733.36 7953.7 1683.51 8091.66 1683.51C8229.62 1683.51 8347.87 1733.36 8446.41 1831.9C8543.8 1930.45 8593.65 2047.54 8593.65 2185.5C8593.65 2323.46 8543.8 2440.55 8445.25 2537.93C8346.71 2635.32 8228.46 2682.85 8091.66 2682.85C7954.86 2682.85 7837.76 2634.16 7740.38 2536.77C7643 2440.55 7594.3 2322.3 7594.3 2185.5Z" fill="#F4E6D2"/>
	<path d="M8095.15 3536.1C7902.7 3536.1 7721.84 3500.16 7552.58 3429.44C7385.64 3358.72 7237.24 3262.5 7107.4 3141.93C6979.87 3019.04 6880.17 2875.28 6805.97 2710.66C6734.09 2543.71 6699.31 2369.81 6699.31 2186.64C6699.31 1998.83 6734.09 1822.61 6805.97 1657.99C6880.17 1494.52 6979.87 1351.92 7107.4 1231.35C7237.24 1108.46 7385.64 1011.08 7552.58 939.201C7721.84 868.482 7902.7 832.543 8095.15 832.543C8286.44 832.543 8467.29 868.482 8637.71 939.201C8806.97 1011.08 8955.37 1108.46 9082.89 1231.35C9209.26 1351.92 9307.8 1494.52 9379.68 1657.99C9453.88 1822.61 9490.98 1998.83 9490.98 2186.64C9490.98 2369.81 9453.88 2543.71 9379.68 2710.66C9307.8 2875.28 9209.26 3019.04 9082.89 3141.93C8955.37 3262.5 8806.97 3358.72 8637.71 3429.44C8467.29 3500.16 8286.44 3536.1 8095.15 3536.1ZM7733.44 2186.64C7733.44 2286.34 7767.06 2370.97 7835.46 2441.69C7906.18 2510.09 7993.13 2543.71 8095.15 2543.71C8193.69 2543.71 8278.32 2510.09 8350.2 2441.69C8420.92 2370.97 8456.86 2286.34 8456.86 2186.64C8456.86 2084.62 8420.92 1998.83 8350.2 1926.95C8278.32 1856.23 8193.69 1820.29 8095.15 1820.29C7993.13 1820.29 7906.18 1856.23 7835.46 1926.95C7767.06 1998.83 7733.44 2084.62 7733.44 2186.64Z" fill="#F62D93"/>
	<path d="M7262.53 687.595L7179.06 729.331L6970.38 274.874L7165.15 182.128C7192.97 170.535 7218.48 163.579 7243.98 163.579C7268.33 161.26 7291.51 167.057 7313.54 182.128C7334.41 198.359 7352.96 221.545 7369.19 251.688C7380.78 279.512 7385.42 307.336 7383.1 335.159C7383.1 360.664 7373.83 383.851 7355.28 404.719C7339.05 426.746 7318.18 444.136 7290.35 455.73L7179.06 506.74L7262.53 687.595ZM7090.95 311.973L7141.96 432.543L7239.34 390.807C7260.21 379.214 7274.12 365.302 7281.08 349.071C7290.35 334 7290.35 316.61 7281.08 298.061C7271.81 279.512 7259.05 267.918 7243.98 260.962C7227.75 255.166 7209.2 258.644 7188.33 270.237L7090.95 311.973Z" fill="#004AAD"/>
	<path d="M7930.21 270.084L8055.42 474.126L7953.4 488.038L7846.74 297.908L7740.08 316.457L7767.91 515.862L7675.16 529.774L7605.6 33.5809L7814.28 1.11967C7844.42 -1.19914 7872.25 -0.0395879 7897.75 5.75698C7925.58 12.7131 7946.44 26.6248 7962.67 47.4928C7977.75 66.0421 7987.02 92.7067 7990.5 126.327C7996.29 161.107 7992.82 190.09 7981.22 214.436C7971.95 239.941 7954.56 258.491 7930.21 270.084ZM7809.64 89.2287L7707.62 107.778L7726.17 237.623L7828.19 219.074C7852.54 216.755 7871.09 208.64 7883.84 195.887C7895.43 184.294 7900.07 166.904 7897.75 144.876C7894.27 124.009 7885 107.778 7869.93 98.5033C7853.7 89.2287 7833.99 86.9102 7809.64 89.2287Z" fill="#004AAD"/>
	<path d="M8436.47 520.658C8392.42 513.702 8357.64 499.791 8329.81 478.923C8304.31 460.373 8284.6 437.187 8269.53 409.363C8253.3 381.539 8242.86 352.556 8237.07 321.254C8230.11 291.111 8230.11 258.65 8237.07 223.87C8242.86 190.25 8253.3 158.948 8269.53 131.124C8288.08 100.982 8308.94 75.4761 8334.45 56.9269C8358.8 36.0591 8385.46 22.1469 8413.28 15.191C8443.43 5.9164 8480.53 4.75714 8524.58 10.5537C8564 17.5098 8598.78 31.4215 8626.6 52.2896C8656.74 70.8388 8678.77 94.0254 8691.52 121.849C8706.59 147.355 8715.87 176.338 8719.35 209.958C8721.67 241.26 8720.51 273.721 8714.71 307.342C8707.75 342.122 8697.32 372.264 8682.25 400.088C8669.5 427.912 8650.95 453.417 8626.6 474.285C8604.57 495.153 8576.75 509.065 8543.13 516.021C8511.83 525.296 8475.89 526.455 8436.47 520.658ZM8450.38 437.187C8480.53 444.143 8508.35 440.665 8533.85 427.912C8558.2 416.319 8576.75 398.929 8589.5 376.902C8604.57 352.556 8615.01 323.573 8621.96 288.793C8627.76 255.172 8627.76 223.87 8621.96 196.046C8615.01 168.222 8603.41 147.355 8584.86 131.124C8566.32 112.575 8540.81 100.982 8510.67 94.0254C8479.37 88.2288 8451.54 91.7069 8427.2 103.3C8401.69 112.575 8381.98 129.965 8366.91 154.311C8354.16 179.816 8344.88 208.799 8339.09 242.42C8332.13 277.2 8332.13 307.342 8339.09 335.166C8344.88 360.671 8357.64 381.539 8376.19 400.088C8394.73 418.638 8419.08 431.39 8450.38 437.187Z" fill="#004AAD"/>
	<path d="M9018.07 714.636L8929.96 672.9L9120.09 306.552L8985.61 232.355L9027.35 153.52L9379.78 339.013L9338.05 417.847L9208.2 348.288L9018.07 714.636Z" fill="#004AAD"/>
	<path d="M9513.74 1109.63L9272.6 882.404L9615.76 520.693L9856.9 747.921L9796.61 808.207L9625.03 645.9L9541.56 734.01L9694.59 877.766L9638.95 938.051L9485.91 794.295L9397.8 887.041L9569.39 1049.35L9513.74 1109.63Z" fill="#004AAD"/>
	<path d="M9678.02 1338.71L9627.01 1259.87L10039.7 981.635L10090.7 1060.47L9678.02 1338.71Z" fill="#004AAD"/>
	<path d="M9814.36 1592.55L9781.9 1504.44L10250.3 1332.86L10287.4 1430.24L10027.7 1745.58L10361.6 1625.01L10394 1713.12L9925.65 1884.7L9888.56 1782.68L10148.2 1467.34L9814.36 1592.55Z" fill="#004AAD"/>
</svg>