<svg width="9626" height="4418" viewBox="0 0 9626 4418" fill="none" xmlns="http://www.w3.org/2000/svg">
<path d="M1725.47 2303.3C1725.47 2236.06 1699.96 2176.93 1651.27 2127.08C1604.9 2074.91 1545.77 2048.25 1475.05 2048.25C1406.65 2048.25 1346.37 2074.91 1294.2 2127.08C1244.35 2176.93 1220 2236.06 1220 2303.3C1220 2375.18 1245.5 2433.15 1298.83 2479.52C1354.48 2525.89 1415.93 2549.08 1484.33 2549.08H1655.91V3124.11H287.899C191.675 3012.81 118.637 2885.28 69.9451 2739.21C23.572 2594.29 0.385376 2449.38 0.385376 2303.3C0.385376 2099.26 37.4839 1909.13 111.681 1732.91C188.197 1554.37 294.855 1396.71 431.656 1259.9C567.297 1124.26 723.807 1018.76 900.025 944.567C1078.56 868.051 1271.01 828.634 1475.05 828.634C1679.09 828.634 1869.22 868.051 2045.44 944.567C2223.98 1018.76 2380.49 1124.26 2513.81 1259.9C2649.45 1396.71 2756.11 1554.37 2833.79 1732.91C2910.3 1909.13 2949.72 2099.26 2949.72 2303.3V2947.89C2949.72 3149.61 2910.3 3339.74 2833.79 3518.28C2756.11 3694.5 2649.45 3848.69 2513.81 3982.01C2380.49 4117.65 2223.98 4224.31 2045.44 4301.98C1869.22 4378.5 1679.09 4417.92 1475.05 4417.92H0.385376V3198.3H1725.47C1725.47 3040.63 1725.47 2889.92 1725.47 2743.85C1725.47 2595.45 1725.47 2449.38 1725.47 2303.3Z" fill="#F27141"/>
<path d="M3682.48 3159.5C3466.84 3159.5 3262.8 3118.93 3070.35 3036.61C2879.06 2955.46 2710.96 2841.85 2566.05 2696.93C2421.13 2552.01 2307.52 2382.75 2226.36 2192.62C2144.05 2000.17 2103.47 1796.13 2103.47 1579.34C2103.47 1360.22 2144.05 1155.02 2226.36 964.892C2307.52 774.762 2421.13 607.818 2566.05 462.902C2710.96 317.986 2879.06 204.372 3070.35 123.219C3262.8 40.9065 3466.84 0.330078 3682.48 0.330078C3902.75 0.330078 4107.95 40.9065 4298.08 123.219C4487.05 204.372 4655.16 317.986 4800.07 462.902C4944.99 607.818 5058.6 774.762 5139.76 964.892C5222.07 1155.02 5262.65 1360.22 5262.65 1579.34C5262.65 1796.13 5222.07 2000.17 5139.76 2192.62C5058.6 2382.75 4944.99 2552.01 4800.07 2696.93C4655.16 2841.85 4487.05 2955.46 4298.08 3036.61C4107.95 3118.93 3902.75 3159.5 3682.48 3159.5ZM3682.48 2804.75C3854.06 2804.75 4011.73 2773.45 4157.8 2710.84C4306.2 2647.08 4436.04 2558.97 4549.66 2446.51C4662.11 2332.9 4750.22 2201.9 4813.98 2053.5C4876.59 1905.11 4907.89 1747.44 4907.89 1579.34C4907.89 1408.92 4876.59 1250.09 4813.98 1104.01C4750.22 956.777 4662.11 826.932 4549.66 713.318C4436.04 600.863 4306.2 511.594 4157.8 448.99C4011.73 385.227 3854.06 353.926 3682.48 353.926C3514.38 353.926 3356.71 386.387 3209.47 448.99C3059.92 512.754 2928.92 600.863 2816.46 713.318C2702.85 826.932 2614.74 956.777 2552.13 1104.01C2488.37 1250.09 2457.07 1408.92 2457.07 1579.34C2457.07 1747.44 2489.53 1905.11 2552.13 2053.5C2615.9 2201.9 2704.01 2332.9 2816.46 2446.51C2928.92 2558.97 3059.92 2647.08 3209.47 2710.84C3356.71 2773.45 3514.38 2804.75 3682.48 2804.75ZM3682.48 1515.57C3666.25 1515.57 3651.18 1522.53 3638.43 1535.28C3625.67 1548.03 3618.72 1563.11 3618.72 1579.34C3618.72 1596.73 3625.67 1611.8 3638.43 1624.55C3651.18 1637.3 3666.25 1643.1 3682.48 1643.1C3699.87 1643.1 3714.94 1637.3 3727.69 1624.55C3740.45 1611.8 3746.24 1596.73 3746.24 1579.34C3746.24 1563.11 3740.45 1548.03 3727.69 1535.28C3714.94 1522.53 3699.87 1515.57 3682.48 1515.57ZM3682.48 1161.98C3798.41 1161.98 3895.8 1202.55 3978.11 1284.87C4060.42 1366.02 4101 1464.56 4101 1579.34C4101 1695.27 4060.42 1792.65 3978.11 1874.97C3895.8 1957.28 3798.41 1997.85 3682.48 1997.85C3567.71 1997.85 3469.16 1957.28 3388.01 1874.97C3305.7 1792.65 3265.12 1695.27 3265.12 1579.34C3265.12 1464.56 3305.7 1366.02 3388.01 1284.87C3469.16 1202.55 3567.71 1161.98 3682.48 1161.98Z" fill="#F4E6D2"/>
<path d="M3680.14 2980.96C3487.69 2980.96 3306.83 2945.02 3137.57 2874.3C2967.15 2800.1 2817.6 2700.4 2687.75 2572.87C2560.23 2443.03 2460.52 2293.47 2386.33 2123.05C2314.45 1953.79 2279.67 1772.93 2279.67 1580.49C2279.67 1385.72 2314.45 1204.86 2386.33 1037.92C2460.52 868.658 2560.23 717.945 2687.75 588.1C2817.6 458.256 2967.15 358.553 3137.57 286.675C3306.83 215.956 3487.69 180.017 3680.14 180.017C3877.22 180.017 4060.4 215.956 4227.34 286.675C4396.6 358.553 4545 458.256 4672.52 588.1C4802.37 717.945 4902.07 868.658 4973.95 1037.92C5048.15 1204.86 5085.24 1385.72 5085.24 1580.49C5085.24 1772.93 5048.15 1953.79 4973.95 2123.05C4902.07 2293.47 4802.37 2443.03 4672.52 2572.87C4545 2700.4 4396.6 2800.1 4227.34 2874.3C4060.4 2945.02 3877.22 2980.96 3680.14 2980.96ZM3680.14 1339.35C3615.22 1339.35 3559.57 1364.85 3513.19 1413.54C3466.82 1459.92 3443.64 1515.56 3443.64 1580.49C3443.64 1645.41 3466.82 1703.37 3513.19 1752.07C3559.57 1798.44 3615.22 1821.63 3680.14 1821.63C3747.38 1821.63 3805.35 1798.44 3851.72 1752.07C3898.09 1703.37 3921.28 1645.41 3921.28 1580.49C3921.28 1515.56 3898.09 1459.92 3851.72 1413.54C3805.35 1364.85 3747.38 1339.35 3680.14 1339.35Z" fill="#F27141"/>
<path d="M5026.78 2747.11H4965.33V2595.23L5106.77 2540.75L5386.17 3259.53V4134.82H4018.16V1016.23H5442.98L6057.42 2427.13L5919.46 2487.42L5781.5 2427.13L6395.94 1016.23H7817.28V4134.82H6452.75V3259.53L6733.31 2540.75L6873.59 2595.23V2747.11H6813.3V2595.23L6953.58 2650.88L6514.2 3781.23H5325.88L4885.34 2650.88L5026.78 2595.23V2747.11ZM5129.96 2444.52L5569.34 3574.87L5429.06 3630.52V3478.64H6411.02V3630.52L6269.58 3574.87L6710.12 2444.52H7093.86L6744.9 3343L6603.46 3287.35H6754.18V3984.11H6603.46V3833.4H7666.57V3984.11H7514.7V1166.94H7666.57V1317.65H6495.65V1166.94L6633.61 1227.23L5919.46 2864.2L5205.31 1227.23L5344.43 1166.94V1317.65H4168.87V1166.94H4319.59V3984.11H4168.87V3833.4H5235.46V3984.11H5084.74V3287.35H5235.46L5095.18 3343L4745.06 2444.52H5129.96Z" fill="#F4E6D2"/>
<path d="M5024.46 2597.54H4964.17L5237.77 3288.5V3984.1H4171.19V1164.61H5344.43L5919.46 2486.25L6494.49 1164.61H7667.73V3984.1H6605.78V3288.5L6874.75 2597.54H6814.46L6411.02 3631.67H5427.9L5024.46 2597.54Z" fill="#F62D93"/>
<path d="M8095.24 3389.58C7885.41 3389.58 7687.16 3350.17 7501.67 3273.65C7316.18 3195.98 7153.87 3090.48 7014.75 2955.99C6873.31 2820.35 6763.18 2662.68 6683.18 2481.83C6602.03 2299.81 6561.45 2107.37 6561.45 1903.32C6561.45 1696.96 6602.03 1502.2 6683.18 1322.5C6763.18 1142.8 6873.31 986.295 7014.75 850.653C7153.87 716.171 7316.18 610.672 7501.67 532.997C7687.16 455.322 7885.41 417.064 8095.24 417.064C8306.24 417.064 8504.49 455.322 8689.98 532.997C8874.31 610.672 9037.78 716.171 9176.9 850.653C9318.34 986.295 9427.31 1142.8 9506.15 1322.5C9586.14 1503.36 9625.56 1696.96 9625.56 1903.32C9625.56 2107.37 9586.14 2299.81 9507.31 2481.83C9427.31 2661.52 9318.34 2820.35 9176.9 2955.99C9037.78 3090.48 8874.31 3195.98 8689.98 3273.65C8504.49 3350.17 8306.24 3389.58 8095.24 3389.58ZM8095.24 3115.98C8269.14 3115.98 8432.61 3084.68 8584.48 3020.92C8737.51 2957.15 8871.99 2869.04 8987.93 2758.91C9102.7 2647.61 9191.97 2518.93 9255.73 2371.69C9320.66 2225.62 9351.96 2069.11 9351.96 1903.32C9351.96 1735.22 9320.66 1578.71 9255.73 1432.64C9191.97 1286.56 9102.7 1157.88 8987.93 1047.74C8871.99 936.443 8737.51 849.494 8584.48 785.731C8432.61 721.967 8269.14 690.666 8095.24 690.666C7922.5 690.666 7759.04 721.967 7607.17 785.731C7454.14 849.494 7319.65 936.443 7203.72 1047.74C7088.95 1157.88 6998.52 1286.56 6933.6 1433.8C6867.52 1578.71 6835.05 1735.22 6835.05 1903.32C6835.05 2069.11 6868.67 2224.46 6933.6 2370.53C6998.52 2518.93 7088.95 2647.61 7203.72 2758.91C7319.65 2869.04 7454.14 2957.15 7607.17 3020.92C7759.04 3084.68 7922.5 3115.98 8095.24 3115.98ZM7868.02 1903.32C7868.02 1964.77 7890.04 2018.1 7934.1 2062.15C7976.99 2105.05 8030.32 2127.07 8091.77 2127.07C8154.37 2127.07 8207.7 2105.05 8252.91 2060.99C8298.13 2016.94 8320.15 1964.77 8320.15 1903.32C8320.15 1840.72 8298.13 1787.39 8252.91 1742.18C8207.7 1698.12 8154.37 1674.94 8091.77 1674.94C8030.32 1674.94 7978.15 1696.96 7934.1 1742.18C7890.04 1787.39 7868.02 1840.72 7868.02 1903.32ZM7594.41 1903.32C7594.41 1766.52 7643.11 1648.27 7739.33 1549.73C7836.71 1451.19 7953.81 1401.33 8091.77 1401.33C8229.73 1401.33 8347.98 1451.19 8446.52 1549.73C8543.91 1648.27 8593.76 1765.36 8593.76 1903.32C8593.76 2041.28 8543.91 2158.38 8445.36 2255.76C8346.82 2353.14 8228.57 2400.68 8091.77 2400.68C7954.97 2400.68 7837.87 2351.98 7740.49 2254.6C7643.11 2158.38 7594.41 2040.12 7594.41 1903.32Z" fill="#F4E6D2"/>
<path d="M8095.26 3253.92C7902.81 3253.92 7721.95 3217.98 7552.69 3147.27C7385.75 3076.55 7237.35 2980.32 7107.51 2859.75C6979.98 2736.86 6880.28 2593.11 6806.08 2428.48C6734.2 2261.54 6699.42 2087.64 6699.42 1904.46C6699.42 1716.65 6734.2 1540.44 6806.08 1375.81C6880.28 1212.35 6979.98 1069.75 7107.51 949.177C7237.35 826.288 7385.75 728.905 7552.69 657.026C7721.95 586.307 7902.81 550.368 8095.26 550.368C8286.55 550.368 8467.4 586.307 8637.82 657.026C8807.08 728.905 8955.48 826.288 9083 949.177C9209.37 1069.75 9307.91 1212.35 9379.79 1375.81C9453.99 1540.44 9491.09 1716.65 9491.09 1904.46C9491.09 2087.64 9453.99 2261.54 9379.79 2428.48C9307.91 2593.11 9209.37 2736.86 9083 2859.75C8955.48 2980.32 8807.08 3076.55 8637.82 3147.27C8467.4 3217.98 8286.55 3253.92 8095.26 3253.92ZM7733.55 1904.46C7733.55 2004.17 7767.17 2088.8 7835.57 2159.52C7906.29 2227.92 7993.24 2261.54 8095.26 2261.54C8193.8 2261.54 8278.43 2227.92 8350.31 2159.52C8421.03 2088.8 8456.97 2004.17 8456.97 1904.46C8456.97 1802.44 8421.03 1716.65 8350.31 1644.77C8278.43 1574.06 8193.8 1538.12 8095.26 1538.12C7993.24 1538.12 7906.29 1574.06 7835.57 1644.77C7767.17 1716.65 7733.55 1802.44 7733.55 1904.46Z" fill="#F62D93"/>
</svg>